HIERARCHY
ROOT mixamorig:Hips
{
	OFFSET -0.614970 34.543877 -1.527721
	CHANNELS 6 Xposition Yposition Zposition Xrotation Yrotation Zrotation
	JOINT mixamorig:Spine
	{
		OFFSET 0.000000 2.976032 0.205786
		CHANNELS 3 Xrotation Yrotation Zrotation
		JOINT mixamorig:Spine1
		{
			OFFSET 0.000000 3.472038 0.240084
			CHANNELS 3 Xrotation Yrotation Zrotation
			JOINT mixamorig:Spine2
			{
				OFFSET 0.000000 3.968044 0.274382
				CHANNELS 3 Xrotation Yrotation Zrotation
				JOINT mixamorig:Neck
				{
					OFFSET 0.000000 4.464046 0.308679
					CHANNELS 3 Xrotation Yrotation Zrotation
					JOINT mixamorig:Head
					{
						OFFSET -0.000000 3.149254 0.306977
						CHANNELS 3 Xrotation Yrotation Zrotation
						JOINT mixamorig:HeadTop_End
						{
							OFFSET 0.000000 8.886536 0.866223
							CHANNELS 3 Xrotation Yrotation Zrotation
							End Site
							{
								OFFSET 0.000000 8.928654 0.000000
							}
						}
					}
				}
				JOINT mixamorig:LeftShoulder
				{
					OFFSET 2.039129 3.763176 0.305462
					CHANNELS 3 Xrotation Yrotation Zrotation
					JOINT mixamorig:LeftArm
					{
						OFFSET 4.103379 -1.402306 -0.006436
						CHANNELS 3 Xrotation Yrotation Zrotation
						JOINT mixamorig:LeftForeArm
						{
							OFFSET 7.582575 -0.471954 0.006440
							CHANNELS 3 Xrotation Yrotation Zrotation
							JOINT mixamorig:LeftHand
							{
								OFFSET 7.544544 0.485027 -0.046688
								CHANNELS 3 Xrotation Yrotation Zrotation
								JOINT mixamorig:LeftHandIndex1
								{
									OFFSET 3.453777 0.098137 0.110992
									CHANNELS 3 Xrotation Yrotation Zrotation
									JOINT mixamorig:LeftHandIndex2
									{
										OFFSET 0.757856 -0.104584 -0.109153
										CHANNELS 3 Xrotation Yrotation Zrotation
										JOINT mixamorig:LeftHandIndex3
										{
											OFFSET 1.002211 0.059299 0.082061
											CHANNELS 3 Xrotation Yrotation Zrotation
											JOINT mixamorig:LeftHandIndex4
											{
												OFFSET 0.627235 -0.003593 0.031210
												CHANNELS 3 Xrotation Yrotation Zrotation
												End Site
												{
													OFFSET 0.615889 -0.084991 -0.088706
												}
											}
										}
									}
								}
							}
						}
					}
				}
				JOINT mixamorig:RightShoulder
				{
					OFFSET -2.039129 3.763176 0.311897
					CHANNELS 3 Xrotation Yrotation Zrotation
					JOINT mixamorig:RightArm
					{
						OFFSET -4.103373 -1.402309 0.006435
						CHANNELS 3 Xrotation Yrotation Zrotation
						JOINT mixamorig:RightForeArm
						{
							OFFSET -7.582584 -0.471951 0.000442
							CHANNELS 3 Xrotation Yrotation Zrotation
							JOINT mixamorig:RightHand
							{
								OFFSET -7.544540 0.485027 -0.063385
								CHANNELS 3 Xrotation Yrotation Zrotation
								JOINT mixamorig:RightHandIndex1
								{
									OFFSET -3.350592 0.002247 -0.003047
									CHANNELS 3 Xrotation Yrotation Zrotation
									JOINT mixamorig:RightHandIndex2
									{
										OFFSET -0.766212 0.031059 0.064805
										CHANNELS 3 Xrotation Yrotation Zrotation
										JOINT mixamorig:RightHandIndex3
										{
											OFFSET -1.039288 -0.056969 -0.192446
											CHANNELS 3 Xrotation Yrotation Zrotation
											JOINT mixamorig:RightHandIndex4
											{
												OFFSET -0.579010 -0.060932 -0.082256
												CHANNELS 3 Xrotation Yrotation Zrotation
												End Site
												{
													OFFSET -0.585421 0.023735 0.049514
												}
											}
										}
									}
								}
							}
						}
					}
				}
			}
		}
	}
	JOINT mixamorig:LeftUpLeg
	{
		OFFSET 2.712961 -1.650421 0.058419
		CHANNELS 3 Xrotation Yrotation Zrotation
		JOINT mixamorig:LeftLeg
		{
			OFFSET 0.078689 -15.686089 -0.096571
			CHANNELS 3 Xrotation Yrotation Zrotation
			JOINT mixamorig:LeftFoot
			{
				OFFSET -0.082319 -14.982166 -1.231296
				CHANNELS 3 Xrotation Yrotation Zrotation
				JOINT mixamorig:LeftToeBase
				{
					OFFSET 0.068894 -2.740608 4.050536
					CHANNELS 3 Xrotation Yrotation Zrotation
					JOINT mixamorig:LeftToe_End
					{
						OFFSET -0.014961 0.028371 2.141744
						CHANNELS 3 Xrotation Yrotation Zrotation
						End Site
						{
							OFFSET -0.014961 0.028371 2.141744
						}
					}
				}
			}
		}
	}
	JOINT mixamorig:RightUpLeg
	{
		OFFSET -2.712961 -1.650421 0.089875
		CHANNELS 3 Xrotation Yrotation Zrotation
		JOINT mixamorig:RightLeg
		{
			OFFSET -0.078689 -15.686090 -0.193592
			CHANNELS 3 Xrotation Yrotation Zrotation
			JOINT mixamorig:RightFoot
			{
				OFFSET 0.082319 -14.982168 -1.116114
				CHANNELS 3 Xrotation Yrotation Zrotation
				JOINT mixamorig:RightToeBase
				{
					OFFSET -0.068893 -2.740607 4.031823
					CHANNELS 3 Xrotation Yrotation Zrotation
					JOINT mixamorig:RightToe_End
					{
						OFFSET 0.014961 0.028372 2.109263
						CHANNELS 3 Xrotation Yrotation Zrotation
						End Site
						{
							OFFSET 0.014961 0.028372 2.109263
						}
					}
				}
			}
		}
	}
}
MOTION
Frames: 5
Frame Time: 0.033333
0.186370 32.670071 -0.076005 -6.778130 -42.909994 -4.857893 5.373161 4.594491 -0.781215 10.948476 9.019466 -2.784268 10.948477 9.019452 -2.784265 -1.936405 -1.236778 0.199349 -8.529452 20.429685 1.336918 0.000000 0.000000 -0.000001 1.654170 1.387512 -4.757410 -13.019011 1.957824 -62.603786 7.696643 -50.243394 -2.958173 15.018567 3.432228 12.122782 -1.341488 -17.345848 0.180165 2.956979 12.156915 -34.575176 -0.134723 -1.840529 3.691114 0.000001 -0.000000 0.000000 1.796018 7.194933 6.417914 4.272484 -22.394857 61.956345 -6.002535 42.936577 17.581482 4.927509 10.124775 9.155063 -0.679794 -5.485234 7.206876 -2.138747 13.909208 11.702084 0.590563 -2.410504 -2.782427 0.000002 -0.000001 -0.000000 -24.664219 6.572102 13.006508 32.840431 -14.062361 -0.200283 -5.037606 0.615782 -6.740439 -2.273250 -3.247267 0.901106 0.000001 -0.000000 0.000000 -3.979376 -14.033039 -14.928652 30.903266 -9.173089 -0.388119 -18.711088 -3.598572 16.488143 -1.758733 -0.339157 0.316300 -0.000002 -0.000002 0.000000 
0.188255 32.661980 -0.085218 -6.775813 -42.912296 -4.856769 5.395821 4.593841 -0.786720 10.994213 9.015636 -2.795666 10.994212 9.015623 -2.795664 -1.983416 -1.238857 0.187435 -8.585419 20.403392 1.347569 -0.000000 0.000000 0.000000 1.640573 1.218301 -4.938225 -13.018444 1.976274 -62.480241 7.694059 -50.191051 -2.961600 15.018094 3.408039 12.171221 -1.437510 -17.388702 -0.399660 2.961375 12.030397 -35.425818 -0.134723 -1.840526 3.691117 0.000002 -0.000000 -0.000001 1.785447 7.294728 6.555525 4.219822 -22.410301 61.892449 -6.061645 42.958796 17.543546 4.969174 10.189794 9.167940 -0.680897 -5.477025 7.265247 -2.142878 13.909976 11.717968 0.590562 -2.410507 -2.782428 0.000002 -0.000002 0.000001 -24.717435 6.560378 13.022114 32.907196 -14.066337 -0.201045 -5.053196 0.616813 -6.743889 -2.283960 -3.258114 0.895163 0.000001 0.000003 -0.000000 -4.057668 -14.026753 -14.946015 31.034044 -9.152634 -0.377007 -18.770359 -3.603032 16.475972 -1.771925 -0.335277 0.312388 -0.000002 -0.000000 -0.000000 
0.190134 32.652271 -0.096649 -6.783571 -42.899278 -4.861862 5.421834 4.589077 -0.790489 11.046287 9.003662 -2.803197 11.046291 9.003648 -2.803199 -2.031975 -1.235764 0.169188 -8.576000 20.390995 1.317948 -0.000001 0.000000 0.000001 1.630207 1.067415 -5.129809 -13.046900 1.967725 -62.360290 7.686107 -50.118125 -2.961972 15.023677 3.399734 12.247285 -1.491604 -17.415268 -0.744160 2.962947 11.951436 -35.956465 -0.134719 -1.840526 3.691114 0.000001 0.000001 0.000000 1.774853 7.389874 6.707649 4.145669 -22.430029 61.796983 -6.132044 42.977661 17.493909 5.019173 10.231477 9.164248 -0.680091 -5.481271 7.271209 -2.144390 13.910181 11.724104 0.590562 -2.410505 -2.782426 -0.000000 0.000001 0.000001 -24.776315 6.553067 13.045339 32.983141 -14.094231 -0.209993 -5.067416 0.617059 -6.739169 -2.290644 -3.269039 0.893349 0.000001 0.000003 0.000000 -4.137569 -14.025460 -14.966317 31.190100 -9.137867 -0.359453 -18.842687 -3.607818 16.459999 -1.785726 -0.333364 0.310224 -0.000003 -0.000002 -0.000000 
0.191183 32.644291 -0.109442 -6.794534 -42.874703 -4.871552 5.448233 4.583131 -0.793620 11.099005 8.989647 -2.809291 11.098994 8.989648 -2.809290 -2.082437 -1.232057 0.158790 -8.522576 20.396707 1.259378 -0.000000 -0.000000 -0.000000 1.623360 0.953444 -5.308786 -13.102916 1.943245 -62.279646 7.660493 -50.054754 -2.955692 15.029164 3.407971 12.353103 -1.486178 -17.423302 -0.772838 2.963458 11.934403 -36.070205 -0.134721 -1.840530 3.691115 0.000004 -0.000000 0.000002 1.763552 7.483739 6.870320 4.067682 -22.480483 61.686840 -6.229444 42.985785 17.440456 5.074918 10.265121 9.132992 -0.680475 -5.479603 7.254770 -2.143618 13.910055 11.721086 0.590562 -2.410503 -2.782425 0.000001 -0.000004 0.000000 -24.824442 6.545967 13.069930 33.036597 -14.132001 -0.218098 -5.068662 0.616813 -6.737207 -2.287229 -3.266013 0.897738 0.000001 0.000005 0.000000 -4.199039 -14.024526 -14.972721 31.324938 -9.140338 -0.343959 -18.904941 -3.611985 16.445198 -1.795115 -0.330306 0.307161 -0.000002 0.000000 -0.000000 
0.191168 32.640385 -0.122899 -6.795004 -42.855831 -4.875836 5.471517 4.580343 -0.798962 11.145731 8.982224 -2.819120 11.145730 8.982196 -2.819113 -2.141608 -1.232319 0.165492 -8.449322 20.416142 1.188439 0.000000 0.000000 0.000001 1.618425 0.875059 -5.462395 -13.166252 1.921056 -62.246273 7.625473 -50.025228 -2.939961 15.031351 3.421421 12.482753 -1.446102 -17.415521 -0.598923 2.963717 11.961406 -35.887019 -0.134723 -1.840526 3.691116 0.000004 -0.000001 0.000000 1.750864 7.581472 7.041721 3.996485 -22.569496 61.565727 -6.341159 42.971958 17.390466 5.142791 10.306387 9.089818 -0.680517 -5.480598 7.223715 -2.143181 13.910012 11.719152 0.590562 -2.410508 -2.782428 0.000001 -0.000001 -0.000000 -24.853773 6.535872 13.088658 33.044179 -14.154639 -0.217913 -5.049869 0.616977 -6.750184 -2.272008 -3.248180 0.912515 0.000001 0.000003 0.000000 -4.244328 -14.017221 -14.959827 31.411770 -9.156696 -0.338208 -18.942278 -3.614591 16.431316 -1.797041 -0.328925 0.305848 -0.000002 -0.000002 0.000000 
